<mxfile host="app.diagrams.net" modified="2024-08-05T14:38:58.966Z" agent="Mozilla/5.0 (Macintosh; Intel Mac OS X 10_15_7) AppleWebKit/537.36 (KHTML, like Gecko) Chrome/127.0.0.0 Safari/537.36" version="24.5.4" etag="9ClPdwhWoy5wSRPwDzKW" type="github">
  <diagram name="페이지-1" id="1-GF1daHeZU7JO1lz_p0">
    <mxGraphModel>
      <root>
        <mxCell id="0" />
        <mxCell id="1" parent="0" />
      </root>
    </mxGraphModel>
  </diagram>
</mxfile>
